<?xml version="1.0" encoding="utf-8"?>
<!-- Generator: Adobe Illustrator 23.0.5, SVG Export Plug-In . SVG Version: 6.00 Build 0)  -->
<svg version="1.1" xmlns="http://www.w3.org/2000/svg" xmlns:xlink="http://www.w3.org/1999/xlink" x="0px" y="0px"
	 viewBox="0 0 142.1 64.5" style="enable-background:new 0 0 142.1 64.5;" xml:space="preserve">
<style type="text/css">
	.st0{display:none;}
	.st1{display:inline;}
	.st2{clip-path:url(#SVGID_2_);}
	.st3{filter:url(#Adobe_OpacityMaskFilter);}
	.st4{mask:url(#SVGID_3_);}
	.st5{clip-path:url(#SVGID_5_);}
	.st6{filter:url(#Adobe_OpacityMaskFilter_1_);}
	.st7{mask:url(#f01691604b_1_);}
	.st8{clip-path:url(#SVGID_7_);}
	.st9{filter:url(#Adobe_OpacityMaskFilter_2_);}
	.st10{mask:url(#SVGID_8_);}
	.st11{fill:#FF0000;enable-background:new    ;}
</style>
<g id="Layer_1" class="st0">
	<g class="st1">
		<defs>
			<rect id="SVGID_1_" x="0" y="121.2" width="11.6" height="11.6"/>
		</defs>
		<clipPath id="SVGID_2_">
			<use xlink:href="#SVGID_1_"  style="overflow:visible;"/>
		</clipPath>
		<g class="st2">
			<defs>
				<filter id="Adobe_OpacityMaskFilter" filterUnits="userSpaceOnUse" x="-12.5" y="117.9" width="143.2" height="27.1">
					<feColorMatrix  type="matrix" values="1 0 0 0 0  0 1 0 0 0  0 0 1 0 0  0 0 0 1 0"/>
				</filter>
			</defs>
			<mask maskUnits="userSpaceOnUse" x="-12.5" y="117.9" width="143.2" height="27.1" id="SVGID_3_">
				<g class="st3">
					<g transform="matrix(0.183937, 0, 0, 0.179846, -7.519299, 7.696054)">
						
							<image style="overflow:visible;enable-background:new    ;" width="584" height="113" xlink:href="183CE025.jpg"  transform="matrix(1.3333 0 0 1.3333 -27.115 613.0183)">
						</image>
					</g>
				</g>
			</mask>
			<g class="st4">
				<g transform="matrix(0.183937, 0, 0, 0.179846, -7.519299, 7.696054)">
					<g style="enable-background:new    ;">
						
							<image style="overflow:visible;" width="584" height="113" xlink:href="183CE027.png"  transform="matrix(1.3333 0 0 1.3333 -27.115 613.0183)">
						</image>
					</g>
				</g>
			</g>
		</g>
	</g>
	<g class="st1">
		<defs>
			<rect id="SVGID_4_" x="11.5" y="119.5" width="13.5" height="15.5"/>
		</defs>
		<clipPath id="SVGID_5_">
			<use xlink:href="#SVGID_4_"  style="overflow:visible;"/>
		</clipPath>
		<g class="st5">
			<defs>
				<filter id="Adobe_OpacityMaskFilter_1_" filterUnits="userSpaceOnUse" x="-57" y="116.5" width="143.2" height="27.1">
					<feColorMatrix  type="matrix" values="1 0 0 0 0  0 1 0 0 0  0 0 1 0 0  0 0 0 1 0"/>
				</filter>
			</defs>
			<mask maskUnits="userSpaceOnUse" x="-57" y="116.5" width="143.2" height="27.1" id="f01691604b_1_">
				<g class="st6">
					<g transform="matrix(0.183937, 0, 0, 0.179846, -40.89131, 6.635349)">
						
							<image style="overflow:visible;enable-background:new    ;" width="584" height="113" xlink:href="183CE022.jpg"  transform="matrix(1.3333 0 0 1.3333 -87.5922 611.0524)">
						</image>
					</g>
				</g>
			</mask>
			<g class="st7">
				<g transform="matrix(0.183937, 0, 0, 0.179846, -40.89131, 6.635349)">
					<g style="enable-background:new    ;">
						
							<image style="overflow:visible;" width="584" height="113" xlink:href="183CE023.png"  transform="matrix(1.3333 0 0 1.3333 -87.5922 611.0524)">
						</image>
					</g>
				</g>
			</g>
		</g>
	</g>
	<g class="st1">
		<defs>
			<rect id="SVGID_6_" x="24.9" y="121.2" width="9.7" height="12.6"/>
		</defs>
		<clipPath id="SVGID_7_">
			<use xlink:href="#SVGID_6_"  style="overflow:visible;"/>
		</clipPath>
		<g class="st8">
			<defs>
				<filter id="Adobe_OpacityMaskFilter_2_" filterUnits="userSpaceOnUse" x="-57.1" y="117.9" width="143.2" height="27.1">
					<feColorMatrix  type="matrix" values="1 0 0 0 0  0 1 0 0 0  0 0 1 0 0  0 0 0 1 0"/>
				</filter>
			</defs>
			<mask maskUnits="userSpaceOnUse" x="-57.1" y="117.9" width="143.2" height="27.1" id="SVGID_8_">
				<g class="st9">
					<g transform="matrix(0.183937, 0, 0, 0.179846, -40.989513, 7.684373)">
						
							<image style="overflow:visible;enable-background:new    ;" width="584" height="113" xlink:href="183CE02D.jpg"  transform="matrix(1.3333 0 0 1.3333 -87.7702 612.9967)">
						</image>
					</g>
				</g>
			</mask>
			<g class="st10">
				<g transform="matrix(0.183937, 0, 0, 0.179846, -40.989513, 7.684373)">
					<g style="enable-background:new    ;">
						
							<image style="overflow:visible;" width="584" height="113" xlink:href="183CE02F.png"  transform="matrix(1.3333 0 0 1.3333 -87.7702 612.9967)">
						</image>
					</g>
				</g>
			</g>
		</g>
	</g>
</g>
<g id="Layer_2">
	<path class="st11" d="M1.2,52v-1.2c2.1,0,3.5-0.5,4.2-1.5c0.8-1,1.1-2.8,1.1-5.3V17.1c0-2.6-0.4-4.4-1.1-5.4
		c-0.7-1-2.2-1.5-4.2-1.5V9h16.9v1.2c-2,0-3.4,0.5-4.1,1.5s-1.1,2.8-1.1,5.3v13l15.4-13.8c1.6-1.5,2.5-2.7,2.5-3.6
		c0-1.3-1-2.1-3-2.4V9h17.8v1.2h-2.3c-1.4,0-3.1,0.4-4.9,1.3c-1.8,0.9-3.5,2-5,3.4L18.6,28.2l19.5,18c1.9,1.8,3.4,3,4.5,3.5
		c1,0.5,2.5,0.9,4.4,1V52H35.7L12.8,30.9v13c0,2.5,0.4,4.3,1.1,5.3s2.1,1.5,4.2,1.5V52H1.2z"/>
	<path class="st11" d="M76.3,38l-0.1-0.1c-2.5,3.3-4.8,5.7-6.7,7.2c-2,1.5-3.9,2.2-5.7,2.2c-1.9,0-3.5-0.7-4.7-2.1
		c-1.2-1.4-1.8-3.2-1.8-5.5c0-3.3,1-6.7,2.9-10.3s4.4-6.6,7.4-9.1s5.7-3.8,8-3.8c1.7,0,2.9,0.3,3.8,1c0.9,0.7,1.5,1.9,2,3.6h0.1
		l0.8-3.8l4.5-0.6L79.9,40c-0.2,0.8-0.4,1.6-0.4,2.2c0,2.1,1,3.1,3.1,3.1c2.1,0,4.3-1.1,6.6-3.2c2.3-2.1,4.2-4.8,5.5-8s2-6.6,2-10.2
		c0-6.3-2-11.4-6-15.3c-4-3.9-9.2-5.8-15.7-5.8c-5.4,0-10.3,1.4-14.6,4.2s-7.7,6.7-10.2,11.8S46.5,29.3,46.5,35
		c0,4.8,1.1,9.2,3.4,13.3c2.3,4.1,5.4,7.2,9.3,9.5c3.9,2.2,8.5,3.4,13.5,3.4c6,0,11.4-1.7,16.3-5.1c4.9-3.4,8.4-7.8,10.4-13.4h1.8
		c-2.2,6.1-5.8,11-11,14.7c-5.2,3.7-11,5.5-17.5,5.5c-8.4,0-15.3-2.8-20.7-8.3s-8.1-12.7-8.1-21.3c0-5.9,1.4-11.3,4.1-16.2
		c2.7-4.9,6.5-8.8,11.3-11.6s10.1-4.2,15.9-4.2c7.1,0,12.7,2.1,16.9,6.2c4.2,4.2,6.3,9.7,6.3,16.7c0,4.1-0.8,7.9-2.4,11.5
		c-1.6,3.6-3.8,6.5-6.6,8.7c-2.8,2.2-5.6,3.3-8.4,3.3c-3.7,0-5.5-1.6-5.5-4.7C75.5,42.5,75.8,40.8,76.3,38z M66.1,43.7
		c1.9,0,4-1.1,6.2-3.3s4.1-4.9,5.6-8.2c1.5-3.3,2.2-6.3,2.2-9c0-1.6-0.4-2.9-1.2-3.8c-0.8-0.9-2-1.3-3.5-1.3c-1.8,0-3.7,1.1-5.9,3.4
		s-3.9,5.1-5.4,8.5C62.7,33.3,62,36.3,62,39c0,1.4,0.4,2.5,1.1,3.4C63.9,43.2,64.9,43.7,66.1,43.7z"/>
	<path class="st11" d="M114.6,32.1h-3.4v11.8c0,2.5,0.3,4.3,1,5.3c0.7,1,1.9,1.5,3.7,1.5V52H101v-1.2c1.8,0,3.1-0.5,3.7-1.5
		c0.6-1,1-2.8,1-5.3v-27c0-2.5-0.3-4.3-1-5.3c-0.6-1-1.9-1.5-3.7-1.5V9h17c4.2,0,7.5,1.1,10,3.2s3.8,4.8,3.8,8.1
		c0,5.3-2.8,8.8-8.5,10.6c1.3,0.8,2.5,2,3.7,3.4c1.2,1.5,2.8,3.9,4.7,7.3c2.2,3.8,3.9,6.2,5.1,7.4c1.2,1.2,2.5,1.8,3.8,1.9V52H132
		c-1.7-2.2-3.9-5.4-6.3-9.6c-2.6-4.4-4.7-7.3-6.2-8.5C118,32.7,116.4,32.1,114.6,32.1z M115.5,10.6h-4.3v19.7h5.1
		c3,0,5.4-0.9,7.2-2.7s2.6-4.2,2.6-7.2c0-2.9-1-5.3-2.9-7.1S118.7,10.6,115.5,10.6z"/>
</g>
</svg>
